<mxfile host="Electron" modified="2024-07-08T03:33:07.859Z" agent="Mozilla/5.0 (Macintosh; Intel Mac OS X 10_15_7) AppleWebKit/537.36 (KHTML, like Gecko) draw.io/24.4.13 Chrome/124.0.6367.207 Electron/30.0.6 Safari/537.36" etag="jNIzaoOaLCwSJNBPX0Bv" version="24.4.13" type="device">
  <diagram name="第 1 页" id="s1IzWjxTzua_djQo3Kcs">
    <mxGraphModel dx="2405" dy="-143" grid="1" gridSize="10" guides="1" tooltips="1" connect="1" arrows="1" fold="1" page="1" pageScale="1" pageWidth="827" pageHeight="1169" math="0" shadow="0">
      <root>
        <mxCell id="0" />
        <mxCell id="1" parent="0" />
        <mxCell id="RQ_CZgVm_nvkwywkjvJy-1" value="&lt;font style=&quot;font-size: 48px;&quot;&gt;MOP支付场景&lt;/font&gt;" style="text;strokeColor=none;fillColor=none;align=left;verticalAlign=middle;spacingLeft=4;spacingRight=4;overflow=hidden;points=[[0,0.5],[1,0.5]];portConstraint=eastwest;rotatable=0;whiteSpace=wrap;html=1;" vertex="1" parent="1">
          <mxGeometry x="-767.5" y="1277" width="347.5" height="63" as="geometry" />
        </mxCell>
        <mxCell id="RQ_CZgVm_nvkwywkjvJy-2" value="&lt;font style=&quot;font-size: 36px;&quot;&gt;接口视角&lt;/font&gt;" style="text;html=1;align=center;verticalAlign=middle;resizable=0;points=[];autosize=1;strokeColor=none;fillColor=none;" vertex="1" parent="1">
          <mxGeometry x="-767.5" y="1380" width="170" height="60" as="geometry" />
        </mxCell>
        <mxCell id="RQ_CZgVm_nvkwywkjvJy-5" value="" style="edgeStyle=entityRelationEdgeStyle;rounded=0;orthogonalLoop=1;jettySize=auto;html=1;startArrow=none;endArrow=none;segment=10;curved=1;sourcePerimeterSpacing=0;targetPerimeterSpacing=0;" edge="1" parent="1" source="RQ_CZgVm_nvkwywkjvJy-3" target="RQ_CZgVm_nvkwywkjvJy-4">
          <mxGeometry relative="1" as="geometry" />
        </mxCell>
        <mxCell id="RQ_CZgVm_nvkwywkjvJy-3" value="门店列表&lt;div&gt;&lt;font color=&quot;#000000&quot;&gt;/mop/v2/store/list&lt;/font&gt;&lt;/div&gt;" style="whiteSpace=wrap;html=1;rounded=1;arcSize=50;align=center;verticalAlign=middle;strokeWidth=1;autosize=0;spacing=4;treeFolding=1;treeMoving=1;newEdgeStyle={&quot;edgeStyle&quot;:&quot;entityRelationEdgeStyle&quot;,&quot;startArrow&quot;:&quot;none&quot;,&quot;endArrow&quot;:&quot;none&quot;,&quot;segment&quot;:10,&quot;curved&quot;:1,&quot;sourcePerimeterSpacing&quot;:0,&quot;targetPerimeterSpacing&quot;:0};strokeColor=#2D7600;fontFamily=Helvetica;fontSize=12;fontColor=#ffffff;fillColor=#60a917;" vertex="1" parent="1">
          <mxGeometry x="-750" y="1550" width="120" height="60" as="geometry" />
        </mxCell>
        <mxCell id="RQ_CZgVm_nvkwywkjvJy-7" value="" style="edgeStyle=entityRelationEdgeStyle;rounded=0;orthogonalLoop=1;jettySize=auto;html=1;startArrow=none;endArrow=none;segment=10;curved=1;sourcePerimeterSpacing=0;targetPerimeterSpacing=0;" edge="1" parent="1" source="RQ_CZgVm_nvkwywkjvJy-4" target="RQ_CZgVm_nvkwywkjvJy-6">
          <mxGeometry relative="1" as="geometry" />
        </mxCell>
        <mxCell id="RQ_CZgVm_nvkwywkjvJy-4" value="CC" style="whiteSpace=wrap;html=1;rounded=1;arcSize=50;align=center;verticalAlign=middle;strokeWidth=1;autosize=0;spacing=4;treeFolding=1;treeMoving=1;newEdgeStyle={&quot;edgeStyle&quot;:&quot;entityRelationEdgeStyle&quot;,&quot;startArrow&quot;:&quot;none&quot;,&quot;endArrow&quot;:&quot;none&quot;,&quot;segment&quot;:10,&quot;curved&quot;:1,&quot;sourcePerimeterSpacing&quot;:0,&quot;targetPerimeterSpacing&quot;:0};strokeColor=#3700CC;fontFamily=Helvetica;fontSize=12;fontColor=#000000;fillColor=#6a00ff;" vertex="1" parent="1">
          <mxGeometry x="-550" y="1550" width="120" height="60" as="geometry" />
        </mxCell>
        <mxCell id="RQ_CZgVm_nvkwywkjvJy-11" style="edgeStyle=orthogonalEdgeStyle;rounded=0;orthogonalLoop=1;jettySize=auto;html=1;exitX=1;exitY=0.25;exitDx=0;exitDy=0;entryX=0;entryY=0.5;entryDx=0;entryDy=0;" edge="1" parent="1" source="RQ_CZgVm_nvkwywkjvJy-6" target="RQ_CZgVm_nvkwywkjvJy-9">
          <mxGeometry relative="1" as="geometry" />
        </mxCell>
        <mxCell id="RQ_CZgVm_nvkwywkjvJy-22" style="edgeStyle=orthogonalEdgeStyle;rounded=0;orthogonalLoop=1;jettySize=auto;html=1;exitX=1;exitY=0.5;exitDx=0;exitDy=0;entryX=0;entryY=0.75;entryDx=0;entryDy=0;" edge="1" parent="1" source="RQ_CZgVm_nvkwywkjvJy-6" target="RQ_CZgVm_nvkwywkjvJy-21">
          <mxGeometry relative="1" as="geometry" />
        </mxCell>
        <mxCell id="RQ_CZgVm_nvkwywkjvJy-6" value="/preference/stores/${customer_id}" style="text;html=1;align=center;verticalAlign=middle;whiteSpace=wrap;rounded=0;fontFamily=Helvetica;fontSize=12;fontColor=#000000;autosize=1;" vertex="1" parent="1">
          <mxGeometry x="-360" y="1565" width="200" height="30" as="geometry" />
        </mxCell>
        <mxCell id="RQ_CZgVm_nvkwywkjvJy-8" value="&lt;span style=&quot;font-size: 20px;&quot;&gt;1:1&lt;/span&gt;" style="edgeLabel;html=1;align=center;verticalAlign=middle;resizable=0;points=[];" vertex="1" connectable="0" parent="1">
          <mxGeometry x="-624.1308388434577" y="2139.999889925964" as="geometry">
            <mxPoint x="32" y="-588" as="offset" />
          </mxGeometry>
        </mxCell>
        <mxCell id="RQ_CZgVm_nvkwywkjvJy-9" value="redis" style="rounded=1;whiteSpace=wrap;html=1;fillColor=#f8cecc;strokeColor=#b85450;" vertex="1" parent="1">
          <mxGeometry x="-90" y="1500" width="120" height="30" as="geometry" />
        </mxCell>
        <mxCell id="RQ_CZgVm_nvkwywkjvJy-20" value="&lt;span style=&quot;font-size: 20px;&quot;&gt;1:1&lt;/span&gt;" style="edgeLabel;html=1;align=center;verticalAlign=middle;resizable=0;points=[];" vertex="1" connectable="0" parent="1">
          <mxGeometry x="-170.0008388434577" y="2099.999889925964" as="geometry">
            <mxPoint x="32" y="-588" as="offset" />
          </mxGeometry>
        </mxCell>
        <mxCell id="RQ_CZgVm_nvkwywkjvJy-21" value="mysql" style="rounded=1;whiteSpace=wrap;html=1;fillColor=#f8cecc;strokeColor=#b85450;" vertex="1" parent="1">
          <mxGeometry x="-90" y="1595" width="120" height="25" as="geometry" />
        </mxCell>
        <mxCell id="RQ_CZgVm_nvkwywkjvJy-26" style="edgeStyle=entityRelationEdgeStyle;rounded=0;orthogonalLoop=1;jettySize=auto;html=1;startArrow=none;endArrow=none;segment=10;curved=1;sourcePerimeterSpacing=0;targetPerimeterSpacing=0;exitX=1;exitY=0.5;exitDx=0;exitDy=0;entryX=0;entryY=0.5;entryDx=0;entryDy=0;" edge="1" parent="1" source="RQ_CZgVm_nvkwywkjvJy-23" target="RQ_CZgVm_nvkwywkjvJy-24">
          <mxGeometry relative="1" as="geometry" />
        </mxCell>
        <mxCell id="RQ_CZgVm_nvkwywkjvJy-27" style="edgeStyle=entityRelationEdgeStyle;rounded=0;orthogonalLoop=1;jettySize=auto;html=1;startArrow=none;endArrow=none;segment=10;curved=1;sourcePerimeterSpacing=0;targetPerimeterSpacing=0;exitX=1;exitY=0.5;exitDx=0;exitDy=0;entryX=0;entryY=0.5;entryDx=0;entryDy=0;" edge="1" parent="1" source="RQ_CZgVm_nvkwywkjvJy-23" target="RQ_CZgVm_nvkwywkjvJy-25">
          <mxGeometry relative="1" as="geometry" />
        </mxCell>
        <mxCell id="RQ_CZgVm_nvkwywkjvJy-23" value="&lt;div&gt;订单试算&lt;br&gt;&lt;font color=&quot;#000000&quot;&gt;/mop/order/apply/v5&lt;/font&gt;&lt;br&gt;&lt;/div&gt;" style="whiteSpace=wrap;html=1;rounded=1;arcSize=50;align=center;verticalAlign=middle;strokeWidth=1;autosize=0;spacing=4;treeFolding=1;treeMoving=1;newEdgeStyle={&quot;edgeStyle&quot;:&quot;entityRelationEdgeStyle&quot;,&quot;startArrow&quot;:&quot;none&quot;,&quot;endArrow&quot;:&quot;none&quot;,&quot;segment&quot;:10,&quot;curved&quot;:1,&quot;sourcePerimeterSpacing&quot;:0,&quot;targetPerimeterSpacing&quot;:0};strokeColor=#2D7600;fontFamily=Helvetica;fontSize=12;fontColor=#ffffff;fillColor=#60a917;" vertex="1" parent="1">
          <mxGeometry x="-750" y="1723.5" width="120" height="60" as="geometry" />
        </mxCell>
        <mxCell id="RQ_CZgVm_nvkwywkjvJy-32" style="edgeStyle=entityRelationEdgeStyle;rounded=0;orthogonalLoop=1;jettySize=auto;html=1;startArrow=none;endArrow=none;segment=10;curved=1;sourcePerimeterSpacing=0;targetPerimeterSpacing=0;exitX=1;exitY=0.5;exitDx=0;exitDy=0;entryX=0;entryY=0.5;entryDx=0;entryDy=0;" edge="1" parent="1" source="RQ_CZgVm_nvkwywkjvJy-24" target="RQ_CZgVm_nvkwywkjvJy-30">
          <mxGeometry relative="1" as="geometry" />
        </mxCell>
        <mxCell id="RQ_CZgVm_nvkwywkjvJy-33" style="edgeStyle=entityRelationEdgeStyle;rounded=0;orthogonalLoop=1;jettySize=auto;html=1;startArrow=none;endArrow=none;segment=10;curved=1;sourcePerimeterSpacing=0;targetPerimeterSpacing=0;exitX=1;exitY=0.5;exitDx=0;exitDy=0;" edge="1" parent="1" source="RQ_CZgVm_nvkwywkjvJy-24" target="RQ_CZgVm_nvkwywkjvJy-31">
          <mxGeometry relative="1" as="geometry" />
        </mxCell>
        <mxCell id="RQ_CZgVm_nvkwywkjvJy-24" value="CC" style="whiteSpace=wrap;html=1;rounded=1;arcSize=50;align=center;verticalAlign=middle;strokeWidth=1;autosize=0;spacing=4;treeFolding=1;treeMoving=1;newEdgeStyle={&quot;edgeStyle&quot;:&quot;entityRelationEdgeStyle&quot;,&quot;startArrow&quot;:&quot;none&quot;,&quot;endArrow&quot;:&quot;none&quot;,&quot;segment&quot;:10,&quot;curved&quot;:1,&quot;sourcePerimeterSpacing&quot;:0,&quot;targetPerimeterSpacing&quot;:0};strokeColor=#3700CC;fontFamily=Helvetica;fontSize=12;fontColor=#000000;fillColor=#6a00ff;" vertex="1" parent="1">
          <mxGeometry x="-550" y="1663.5" width="120" height="60" as="geometry" />
        </mxCell>
        <mxCell id="RQ_CZgVm_nvkwywkjvJy-60" style="edgeStyle=entityRelationEdgeStyle;rounded=0;orthogonalLoop=1;jettySize=auto;html=1;startArrow=none;endArrow=none;segment=10;curved=1;sourcePerimeterSpacing=0;targetPerimeterSpacing=0;exitX=1;exitY=0.5;exitDx=0;exitDy=0;entryX=0;entryY=0.5;entryDx=0;entryDy=0;" edge="1" parent="1" source="RQ_CZgVm_nvkwywkjvJy-25" target="RQ_CZgVm_nvkwywkjvJy-59">
          <mxGeometry relative="1" as="geometry" />
        </mxCell>
        <mxCell id="RQ_CZgVm_nvkwywkjvJy-25" value="CRM Adapter" style="whiteSpace=wrap;html=1;rounded=1;arcSize=50;align=center;verticalAlign=middle;strokeWidth=1;autosize=0;spacing=4;treeFolding=1;treeMoving=1;newEdgeStyle={&quot;edgeStyle&quot;:&quot;entityRelationEdgeStyle&quot;,&quot;startArrow&quot;:&quot;none&quot;,&quot;endArrow&quot;:&quot;none&quot;,&quot;segment&quot;:10,&quot;curved&quot;:1,&quot;sourcePerimeterSpacing&quot;:0,&quot;targetPerimeterSpacing&quot;:0};strokeColor=#6F0000;fontFamily=Helvetica;fontSize=12;fontColor=#ffffff;fillColor=#a20025;" vertex="1" parent="1">
          <mxGeometry x="-555" y="1870" width="120" height="60" as="geometry" />
        </mxCell>
        <mxCell id="RQ_CZgVm_nvkwywkjvJy-28" value="&lt;span style=&quot;font-size: 20px;&quot;&gt;1:2&lt;/span&gt;" style="edgeLabel;html=1;align=center;verticalAlign=middle;resizable=0;points=[];" vertex="1" connectable="0" parent="1">
          <mxGeometry x="-624.1308388434577" y="2289.999889925964" as="geometry">
            <mxPoint x="32" y="-588" as="offset" />
          </mxGeometry>
        </mxCell>
        <mxCell id="RQ_CZgVm_nvkwywkjvJy-29" value="&lt;span style=&quot;font-size: 20px;&quot;&gt;1:1&lt;/span&gt;" style="edgeLabel;html=1;align=center;verticalAlign=middle;resizable=0;points=[];" vertex="1" connectable="0" parent="1">
          <mxGeometry x="-624.1308388434577" y="2379.999889925964" as="geometry">
            <mxPoint x="32" y="-588" as="offset" />
          </mxGeometry>
        </mxCell>
        <mxCell id="RQ_CZgVm_nvkwywkjvJy-36" style="edgeStyle=orthogonalEdgeStyle;rounded=0;orthogonalLoop=1;jettySize=auto;html=1;exitX=1;exitY=0.5;exitDx=0;exitDy=0;entryX=0;entryY=0.5;entryDx=0;entryDy=0;" edge="1" parent="1" source="RQ_CZgVm_nvkwywkjvJy-30" target="RQ_CZgVm_nvkwywkjvJy-34">
          <mxGeometry relative="1" as="geometry" />
        </mxCell>
        <mxCell id="RQ_CZgVm_nvkwywkjvJy-39" style="edgeStyle=orthogonalEdgeStyle;rounded=0;orthogonalLoop=1;jettySize=auto;html=1;exitX=1;exitY=0.5;exitDx=0;exitDy=0;" edge="1" parent="1" source="RQ_CZgVm_nvkwywkjvJy-30" target="RQ_CZgVm_nvkwywkjvJy-35">
          <mxGeometry relative="1" as="geometry" />
        </mxCell>
        <mxCell id="RQ_CZgVm_nvkwywkjvJy-43" value="或" style="edgeLabel;html=1;align=center;verticalAlign=middle;resizable=0;points=[];" vertex="1" connectable="0" parent="RQ_CZgVm_nvkwywkjvJy-39">
          <mxGeometry x="-0.617" y="-1" relative="1" as="geometry">
            <mxPoint x="1" as="offset" />
          </mxGeometry>
        </mxCell>
        <mxCell id="RQ_CZgVm_nvkwywkjvJy-30" value="/preference/settings/${customer_id}" style="text;html=1;align=center;verticalAlign=middle;whiteSpace=wrap;rounded=0;fontFamily=Helvetica;fontSize=12;fontColor=#000000;autosize=1;" vertex="1" parent="1">
          <mxGeometry x="-365" y="1655" width="210" height="30" as="geometry" />
        </mxCell>
        <mxCell id="RQ_CZgVm_nvkwywkjvJy-54" value="" style="edgeStyle=orthogonalEdgeStyle;rounded=0;orthogonalLoop=1;jettySize=auto;html=1;" edge="1" parent="1" source="RQ_CZgVm_nvkwywkjvJy-31" target="RQ_CZgVm_nvkwywkjvJy-53">
          <mxGeometry relative="1" as="geometry" />
        </mxCell>
        <mxCell id="RQ_CZgVm_nvkwywkjvJy-55" style="edgeStyle=orthogonalEdgeStyle;rounded=0;orthogonalLoop=1;jettySize=auto;html=1;exitX=1;exitY=0.5;exitDx=0;exitDy=0;" edge="1" parent="1" source="RQ_CZgVm_nvkwywkjvJy-31" target="RQ_CZgVm_nvkwywkjvJy-52">
          <mxGeometry relative="1" as="geometry" />
        </mxCell>
        <mxCell id="RQ_CZgVm_nvkwywkjvJy-58" value="或" style="edgeLabel;html=1;align=center;verticalAlign=middle;resizable=0;points=[];" vertex="1" connectable="0" parent="RQ_CZgVm_nvkwywkjvJy-55">
          <mxGeometry x="-0.7523" y="4" relative="1" as="geometry">
            <mxPoint x="1" as="offset" />
          </mxGeometry>
        </mxCell>
        <mxCell id="RQ_CZgVm_nvkwywkjvJy-31" value="/preference/settings/${customer_id}/${key}" style="text;html=1;align=center;verticalAlign=middle;whiteSpace=wrap;rounded=0;fontFamily=Helvetica;fontSize=12;fontColor=#000000;autosize=1;" vertex="1" parent="1">
          <mxGeometry x="-365" y="1750" width="250" height="30" as="geometry" />
        </mxCell>
        <mxCell id="RQ_CZgVm_nvkwywkjvJy-34" value="redis" style="rounded=1;whiteSpace=wrap;html=1;fillColor=#f8cecc;strokeColor=#b85450;" vertex="1" parent="1">
          <mxGeometry x="-90" y="1633.5" width="120" height="30" as="geometry" />
        </mxCell>
        <mxCell id="RQ_CZgVm_nvkwywkjvJy-35" value="mysql" style="rounded=1;whiteSpace=wrap;html=1;fillColor=#f8cecc;strokeColor=#b85450;" vertex="1" parent="1">
          <mxGeometry x="-90" y="1685" width="120" height="25" as="geometry" />
        </mxCell>
        <mxCell id="RQ_CZgVm_nvkwywkjvJy-40" value="&lt;span style=&quot;font-size: 20px;&quot;&gt;1:1&lt;/span&gt;" style="edgeLabel;html=1;align=center;verticalAlign=middle;resizable=0;points=[];" vertex="1" connectable="0" parent="1">
          <mxGeometry x="-170.0008388434577" y="2189.999889925964" as="geometry">
            <mxPoint x="32" y="-588" as="offset" />
          </mxGeometry>
        </mxCell>
        <mxCell id="RQ_CZgVm_nvkwywkjvJy-41" value="&lt;span style=&quot;font-size: 20px;&quot;&gt;1:1&lt;/span&gt;" style="edgeLabel;html=1;align=center;verticalAlign=middle;resizable=0;points=[];" vertex="1" connectable="0" parent="1">
          <mxGeometry x="-170.0008388434577" y="2239.999889925964" as="geometry">
            <mxPoint x="32" y="-588" as="offset" />
          </mxGeometry>
        </mxCell>
        <mxCell id="RQ_CZgVm_nvkwywkjvJy-42" value="&lt;span style=&quot;font-size: 20px;&quot;&gt;1:1&lt;/span&gt;" style="edgeLabel;html=1;align=center;verticalAlign=middle;resizable=0;points=[];" vertex="1" connectable="0" parent="1">
          <mxGeometry x="-170.0008388434577" y="2279.999889925964" as="geometry">
            <mxPoint x="32" y="-588" as="offset" />
          </mxGeometry>
        </mxCell>
        <mxCell id="RQ_CZgVm_nvkwywkjvJy-52" value="redis" style="rounded=1;whiteSpace=wrap;html=1;fillColor=#f8cecc;strokeColor=#b85450;" vertex="1" parent="1">
          <mxGeometry x="-57.5" y="1726.75" width="120" height="30" as="geometry" />
        </mxCell>
        <mxCell id="RQ_CZgVm_nvkwywkjvJy-53" value="mysql" style="rounded=1;whiteSpace=wrap;html=1;fillColor=#f8cecc;strokeColor=#b85450;" vertex="1" parent="1">
          <mxGeometry x="-57.5" y="1778.25" width="120" height="25" as="geometry" />
        </mxCell>
        <mxCell id="RQ_CZgVm_nvkwywkjvJy-56" value="&lt;span style=&quot;font-size: 20px;&quot;&gt;1:1&lt;/span&gt;" style="edgeLabel;html=1;align=center;verticalAlign=middle;resizable=0;points=[];" vertex="1" connectable="0" parent="1">
          <mxGeometry x="-120.0008388434577" y="2309.999889925964" as="geometry">
            <mxPoint x="32" y="-588" as="offset" />
          </mxGeometry>
        </mxCell>
        <mxCell id="RQ_CZgVm_nvkwywkjvJy-57" value="&lt;span style=&quot;font-size: 20px;&quot;&gt;1:1&lt;/span&gt;" style="edgeLabel;html=1;align=center;verticalAlign=middle;resizable=0;points=[];" vertex="1" connectable="0" parent="1">
          <mxGeometry x="-110.0008388434577" y="2399.999889925964" as="geometry">
            <mxPoint x="32" y="-588" as="offset" />
          </mxGeometry>
        </mxCell>
        <mxCell id="RQ_CZgVm_nvkwywkjvJy-63" style="edgeStyle=orthogonalEdgeStyle;rounded=0;orthogonalLoop=1;jettySize=auto;html=1;exitX=1;exitY=0.5;exitDx=0;exitDy=0;entryX=0;entryY=0.5;entryDx=0;entryDy=0;" edge="1" parent="1" source="RQ_CZgVm_nvkwywkjvJy-59" target="RQ_CZgVm_nvkwywkjvJy-61">
          <mxGeometry relative="1" as="geometry" />
        </mxCell>
        <mxCell id="RQ_CZgVm_nvkwywkjvJy-64" style="edgeStyle=orthogonalEdgeStyle;rounded=0;orthogonalLoop=1;jettySize=auto;html=1;exitX=1;exitY=0.5;exitDx=0;exitDy=0;entryX=0;entryY=0.75;entryDx=0;entryDy=0;" edge="1" parent="1" source="RQ_CZgVm_nvkwywkjvJy-59" target="RQ_CZgVm_nvkwywkjvJy-62">
          <mxGeometry relative="1" as="geometry" />
        </mxCell>
        <mxCell id="RQ_CZgVm_nvkwywkjvJy-59" value="/api/v2/customers/detail/simple" style="text;html=1;align=center;verticalAlign=middle;whiteSpace=wrap;rounded=0;fontFamily=Helvetica;fontSize=12;fontColor=#000000;autosize=1;" vertex="1" parent="1">
          <mxGeometry x="-335" y="1885" width="190" height="30" as="geometry" />
        </mxCell>
        <mxCell id="RQ_CZgVm_nvkwywkjvJy-66" style="edgeStyle=entityRelationEdgeStyle;rounded=0;orthogonalLoop=1;jettySize=auto;html=1;startArrow=none;endArrow=none;segment=10;curved=1;sourcePerimeterSpacing=0;targetPerimeterSpacing=0;exitX=1;exitY=0.5;exitDx=0;exitDy=0;entryX=0;entryY=0.5;entryDx=0;entryDy=0;" edge="1" parent="1" source="RQ_CZgVm_nvkwywkjvJy-61" target="RQ_CZgVm_nvkwywkjvJy-65">
          <mxGeometry relative="1" as="geometry" />
        </mxCell>
        <mxCell id="RQ_CZgVm_nvkwywkjvJy-61" value="CC" style="whiteSpace=wrap;html=1;rounded=1;arcSize=50;align=center;verticalAlign=middle;strokeWidth=1;autosize=0;spacing=4;treeFolding=1;treeMoving=1;newEdgeStyle={&quot;edgeStyle&quot;:&quot;entityRelationEdgeStyle&quot;,&quot;startArrow&quot;:&quot;none&quot;,&quot;endArrow&quot;:&quot;none&quot;,&quot;segment&quot;:10,&quot;curved&quot;:1,&quot;sourcePerimeterSpacing&quot;:0,&quot;targetPerimeterSpacing&quot;:0};strokeColor=#3700CC;fontFamily=Helvetica;fontSize=12;fontColor=#000000;fillColor=#6a00ff;" vertex="1" parent="1">
          <mxGeometry x="-50" y="1820" width="120" height="60" as="geometry" />
        </mxCell>
        <mxCell id="RQ_CZgVm_nvkwywkjvJy-68" style="edgeStyle=entityRelationEdgeStyle;rounded=0;orthogonalLoop=1;jettySize=auto;html=1;startArrow=none;endArrow=none;segment=10;curved=1;sourcePerimeterSpacing=0;targetPerimeterSpacing=0;exitX=1;exitY=0.5;exitDx=0;exitDy=0;" edge="1" parent="1" source="RQ_CZgVm_nvkwywkjvJy-62" target="RQ_CZgVm_nvkwywkjvJy-67">
          <mxGeometry relative="1" as="geometry" />
        </mxCell>
        <mxCell id="RQ_CZgVm_nvkwywkjvJy-62" value="CAC" style="whiteSpace=wrap;html=1;rounded=1;arcSize=50;align=center;verticalAlign=middle;strokeWidth=1;autosize=0;spacing=4;treeFolding=1;treeMoving=1;newEdgeStyle={&quot;edgeStyle&quot;:&quot;entityRelationEdgeStyle&quot;,&quot;startArrow&quot;:&quot;none&quot;,&quot;endArrow&quot;:&quot;none&quot;,&quot;segment&quot;:10,&quot;curved&quot;:1,&quot;sourcePerimeterSpacing&quot;:0,&quot;targetPerimeterSpacing&quot;:0};strokeColor=#005700;fontFamily=Helvetica;fontSize=12;fontColor=#ffffff;fillColor=#008a00;" vertex="1" parent="1">
          <mxGeometry x="-50" y="1930" width="120" height="60" as="geometry" />
        </mxCell>
        <mxCell id="RQ_CZgVm_nvkwywkjvJy-65" value="/member/memberInfo/getMemberSimple" style="text;html=1;align=center;verticalAlign=middle;whiteSpace=wrap;rounded=0;fontFamily=Helvetica;fontSize=12;fontColor=#000000;autosize=1;" vertex="1" parent="1">
          <mxGeometry x="160" y="1835" width="240" height="30" as="geometry" />
        </mxCell>
        <mxCell id="RQ_CZgVm_nvkwywkjvJy-67" value="/asset/v1/stars/balance" style="text;html=1;align=center;verticalAlign=middle;whiteSpace=wrap;rounded=0;fontFamily=Helvetica;fontSize=12;fontColor=#000000;autosize=1;" vertex="1" parent="1">
          <mxGeometry x="219" y="1945" width="150" height="30" as="geometry" />
        </mxCell>
        <mxCell id="RQ_CZgVm_nvkwywkjvJy-69" value="&lt;span style=&quot;font-size: 20px;&quot;&gt;1:1&lt;/span&gt;" style="edgeLabel;html=1;align=center;verticalAlign=middle;resizable=0;points=[];" vertex="1" connectable="0" parent="1">
          <mxGeometry x="-110.0008388434577" y="2419.999889925964" as="geometry">
            <mxPoint x="32" y="-588" as="offset" />
          </mxGeometry>
        </mxCell>
        <mxCell id="RQ_CZgVm_nvkwywkjvJy-70" value="&lt;span style=&quot;font-size: 20px;&quot;&gt;1:1&lt;/span&gt;" style="edgeLabel;html=1;align=center;verticalAlign=middle;resizable=0;points=[];" vertex="1" connectable="0" parent="1">
          <mxGeometry x="-110.0008388434577" y="2539.999889925964" as="geometry">
            <mxPoint x="32" y="-588" as="offset" />
          </mxGeometry>
        </mxCell>
        <mxCell id="RQ_CZgVm_nvkwywkjvJy-73" style="edgeStyle=entityRelationEdgeStyle;rounded=0;orthogonalLoop=1;jettySize=auto;html=1;startArrow=none;endArrow=none;segment=10;curved=1;sourcePerimeterSpacing=0;targetPerimeterSpacing=0;exitX=1;exitY=0.5;exitDx=0;exitDy=0;" edge="1" parent="1" source="RQ_CZgVm_nvkwywkjvJy-71" target="RQ_CZgVm_nvkwywkjvJy-72">
          <mxGeometry relative="1" as="geometry" />
        </mxCell>
        <mxCell id="RQ_CZgVm_nvkwywkjvJy-108" style="edgeStyle=entityRelationEdgeStyle;rounded=0;orthogonalLoop=1;jettySize=auto;html=1;startArrow=none;endArrow=none;segment=10;curved=1;sourcePerimeterSpacing=0;targetPerimeterSpacing=0;exitX=1;exitY=0.5;exitDx=0;exitDy=0;entryX=0;entryY=0.5;entryDx=0;entryDy=0;" edge="1" parent="1" source="RQ_CZgVm_nvkwywkjvJy-71" target="RQ_CZgVm_nvkwywkjvJy-76">
          <mxGeometry relative="1" as="geometry" />
        </mxCell>
        <mxCell id="RQ_CZgVm_nvkwywkjvJy-71" value="&lt;div&gt;获取订单详情&lt;div&gt;&lt;font color=&quot;#000000&quot;&gt;/v3/order/detail&lt;/font&gt;&lt;/div&gt;&lt;/div&gt;" style="whiteSpace=wrap;html=1;rounded=1;arcSize=50;align=center;verticalAlign=middle;strokeWidth=1;autosize=0;spacing=4;treeFolding=1;treeMoving=1;newEdgeStyle={&quot;edgeStyle&quot;:&quot;entityRelationEdgeStyle&quot;,&quot;startArrow&quot;:&quot;none&quot;,&quot;endArrow&quot;:&quot;none&quot;,&quot;segment&quot;:10,&quot;curved&quot;:1,&quot;sourcePerimeterSpacing&quot;:0,&quot;targetPerimeterSpacing&quot;:0};strokeColor=#2D7600;fontFamily=Helvetica;fontSize=12;fontColor=#ffffff;fillColor=#60a917;" vertex="1" parent="1">
          <mxGeometry x="-742.5" y="2290" width="120" height="60" as="geometry" />
        </mxCell>
        <mxCell id="RQ_CZgVm_nvkwywkjvJy-82" style="edgeStyle=entityRelationEdgeStyle;rounded=0;orthogonalLoop=1;jettySize=auto;html=1;startArrow=none;endArrow=none;segment=10;curved=1;sourcePerimeterSpacing=0;targetPerimeterSpacing=0;exitX=1;exitY=0.5;exitDx=0;exitDy=0;entryX=0;entryY=0.75;entryDx=0;entryDy=0;" edge="1" parent="1" source="RQ_CZgVm_nvkwywkjvJy-72" target="RQ_CZgVm_nvkwywkjvJy-77">
          <mxGeometry relative="1" as="geometry" />
        </mxCell>
        <mxCell id="RQ_CZgVm_nvkwywkjvJy-83" style="edgeStyle=entityRelationEdgeStyle;rounded=0;orthogonalLoop=1;jettySize=auto;html=1;startArrow=none;endArrow=none;segment=10;curved=1;sourcePerimeterSpacing=0;targetPerimeterSpacing=0;exitX=1;exitY=0.5;exitDx=0;exitDy=0;entryX=0;entryY=0.5;entryDx=0;entryDy=0;" edge="1" parent="1" source="RQ_CZgVm_nvkwywkjvJy-72" target="RQ_CZgVm_nvkwywkjvJy-79">
          <mxGeometry relative="1" as="geometry" />
        </mxCell>
        <mxCell id="RQ_CZgVm_nvkwywkjvJy-84" style="edgeStyle=entityRelationEdgeStyle;rounded=0;orthogonalLoop=1;jettySize=auto;html=1;startArrow=none;endArrow=none;segment=10;curved=1;sourcePerimeterSpacing=0;targetPerimeterSpacing=0;exitX=1;exitY=0.5;exitDx=0;exitDy=0;entryX=0;entryY=0.25;entryDx=0;entryDy=0;" edge="1" parent="1" source="RQ_CZgVm_nvkwywkjvJy-72" target="RQ_CZgVm_nvkwywkjvJy-80">
          <mxGeometry relative="1" as="geometry" />
        </mxCell>
        <mxCell id="RQ_CZgVm_nvkwywkjvJy-85" style="edgeStyle=entityRelationEdgeStyle;rounded=0;orthogonalLoop=1;jettySize=auto;html=1;startArrow=none;endArrow=none;segment=10;curved=1;sourcePerimeterSpacing=0;targetPerimeterSpacing=0;exitX=1;exitY=0.5;exitDx=0;exitDy=0;entryX=0;entryY=0.5;entryDx=0;entryDy=0;" edge="1" parent="1" source="RQ_CZgVm_nvkwywkjvJy-72" target="RQ_CZgVm_nvkwywkjvJy-81">
          <mxGeometry relative="1" as="geometry">
            <Array as="points">
              <mxPoint x="-430" y="2290" />
              <mxPoint x="-450" y="2335" />
            </Array>
          </mxGeometry>
        </mxCell>
        <mxCell id="RQ_CZgVm_nvkwywkjvJy-72" value="CC" style="whiteSpace=wrap;html=1;rounded=1;arcSize=50;align=center;verticalAlign=middle;strokeWidth=1;autosize=0;spacing=4;treeFolding=1;treeMoving=1;newEdgeStyle={&quot;edgeStyle&quot;:&quot;entityRelationEdgeStyle&quot;,&quot;startArrow&quot;:&quot;none&quot;,&quot;endArrow&quot;:&quot;none&quot;,&quot;segment&quot;:10,&quot;curved&quot;:1,&quot;sourcePerimeterSpacing&quot;:0,&quot;targetPerimeterSpacing&quot;:0};strokeColor=#3700CC;fontFamily=Helvetica;fontSize=12;fontColor=#000000;fillColor=#6a00ff;" vertex="1" parent="1">
          <mxGeometry x="-550" y="2150" width="120" height="60" as="geometry" />
        </mxCell>
        <mxCell id="RQ_CZgVm_nvkwywkjvJy-74" value="&lt;span style=&quot;font-size: 20px;&quot;&gt;1:4&lt;/span&gt;" style="edgeLabel;html=1;align=center;verticalAlign=middle;resizable=0;points=[];" vertex="1" connectable="0" parent="1">
          <mxGeometry x="-630.0008388434577" y="2782.999889925964" as="geometry">
            <mxPoint x="32" y="-588" as="offset" />
          </mxGeometry>
        </mxCell>
        <mxCell id="RQ_CZgVm_nvkwywkjvJy-112" style="edgeStyle=entityRelationEdgeStyle;rounded=0;orthogonalLoop=1;jettySize=auto;html=1;startArrow=none;endArrow=none;segment=10;curved=1;sourcePerimeterSpacing=0;targetPerimeterSpacing=0;exitX=1;exitY=0.5;exitDx=0;exitDy=0;entryX=0;entryY=0.25;entryDx=0;entryDy=0;" edge="1" parent="1" source="RQ_CZgVm_nvkwywkjvJy-76" target="RQ_CZgVm_nvkwywkjvJy-110">
          <mxGeometry relative="1" as="geometry" />
        </mxCell>
        <mxCell id="RQ_CZgVm_nvkwywkjvJy-113" style="edgeStyle=entityRelationEdgeStyle;rounded=0;orthogonalLoop=1;jettySize=auto;html=1;startArrow=none;endArrow=none;segment=10;curved=1;sourcePerimeterSpacing=0;targetPerimeterSpacing=0;exitX=1;exitY=0.5;exitDx=0;exitDy=0;entryX=0;entryY=0.25;entryDx=0;entryDy=0;" edge="1" parent="1" source="RQ_CZgVm_nvkwywkjvJy-76" target="RQ_CZgVm_nvkwywkjvJy-111">
          <mxGeometry relative="1" as="geometry" />
        </mxCell>
        <mxCell id="RQ_CZgVm_nvkwywkjvJy-76" value="CRM Adapter" style="whiteSpace=wrap;html=1;rounded=1;arcSize=50;align=center;verticalAlign=middle;strokeWidth=1;autosize=0;spacing=4;treeFolding=1;treeMoving=1;newEdgeStyle={&quot;edgeStyle&quot;:&quot;entityRelationEdgeStyle&quot;,&quot;startArrow&quot;:&quot;none&quot;,&quot;endArrow&quot;:&quot;none&quot;,&quot;segment&quot;:10,&quot;curved&quot;:1,&quot;sourcePerimeterSpacing&quot;:0,&quot;targetPerimeterSpacing&quot;:0};strokeColor=#6F0000;fontFamily=Helvetica;fontSize=12;fontColor=#ffffff;fillColor=#a20025;" vertex="1" parent="1">
          <mxGeometry x="-555" y="2410" width="120" height="60" as="geometry" />
        </mxCell>
        <mxCell id="RQ_CZgVm_nvkwywkjvJy-89" style="edgeStyle=orthogonalEdgeStyle;rounded=0;orthogonalLoop=1;jettySize=auto;html=1;exitX=1;exitY=0.5;exitDx=0;exitDy=0;entryX=0;entryY=0.5;entryDx=0;entryDy=0;" edge="1" parent="1" source="RQ_CZgVm_nvkwywkjvJy-77" target="RQ_CZgVm_nvkwywkjvJy-87">
          <mxGeometry relative="1" as="geometry" />
        </mxCell>
        <mxCell id="RQ_CZgVm_nvkwywkjvJy-90" style="edgeStyle=orthogonalEdgeStyle;rounded=0;orthogonalLoop=1;jettySize=auto;html=1;exitX=1;exitY=0.5;exitDx=0;exitDy=0;entryX=0;entryY=0.5;entryDx=0;entryDy=0;" edge="1" parent="1" source="RQ_CZgVm_nvkwywkjvJy-77" target="RQ_CZgVm_nvkwywkjvJy-88">
          <mxGeometry relative="1" as="geometry" />
        </mxCell>
        <mxCell id="RQ_CZgVm_nvkwywkjvJy-93" value="或" style="edgeLabel;html=1;align=center;verticalAlign=middle;resizable=0;points=[];" vertex="1" connectable="0" parent="RQ_CZgVm_nvkwywkjvJy-90">
          <mxGeometry x="-0.7342" y="-5" relative="1" as="geometry">
            <mxPoint as="offset" />
          </mxGeometry>
        </mxCell>
        <mxCell id="RQ_CZgVm_nvkwywkjvJy-77" value="/preference/settings/${customer_id}" style="text;html=1;align=center;verticalAlign=middle;whiteSpace=wrap;rounded=0;fontFamily=Helvetica;fontSize=12;fontColor=#000000;autosize=1;" vertex="1" parent="1">
          <mxGeometry x="-380" y="2085" width="210" height="30" as="geometry" />
        </mxCell>
        <mxCell id="RQ_CZgVm_nvkwywkjvJy-95" style="edgeStyle=orthogonalEdgeStyle;rounded=0;orthogonalLoop=1;jettySize=auto;html=1;exitX=1;exitY=0.25;exitDx=0;exitDy=0;entryX=0;entryY=0.5;entryDx=0;entryDy=0;curved=1;" edge="1" parent="1" source="RQ_CZgVm_nvkwywkjvJy-79" target="RQ_CZgVm_nvkwywkjvJy-94">
          <mxGeometry relative="1" as="geometry" />
        </mxCell>
        <mxCell id="RQ_CZgVm_nvkwywkjvJy-79" value="/preference/coffeeCards" style="text;html=1;align=center;verticalAlign=middle;whiteSpace=wrap;rounded=0;fontFamily=Helvetica;fontSize=12;fontColor=#000000;autosize=1;" vertex="1" parent="1">
          <mxGeometry x="-340" y="2160" width="150" height="30" as="geometry" />
        </mxCell>
        <mxCell id="RQ_CZgVm_nvkwywkjvJy-99" style="edgeStyle=orthogonalEdgeStyle;rounded=0;orthogonalLoop=1;jettySize=auto;html=1;exitX=1;exitY=0.5;exitDx=0;exitDy=0;" edge="1" parent="1" source="RQ_CZgVm_nvkwywkjvJy-80" target="RQ_CZgVm_nvkwywkjvJy-98">
          <mxGeometry relative="1" as="geometry" />
        </mxCell>
        <mxCell id="RQ_CZgVm_nvkwywkjvJy-80" value="/member/memberInfo/v1/queryUsersAvatorAndNickname" style="text;html=1;align=center;verticalAlign=middle;whiteSpace=wrap;rounded=0;fontFamily=Helvetica;fontSize=12;fontColor=#000000;autosize=1;" vertex="1" parent="1">
          <mxGeometry x="-405" y="2230" width="330" height="30" as="geometry" />
        </mxCell>
        <mxCell id="RQ_CZgVm_nvkwywkjvJy-103" style="edgeStyle=orthogonalEdgeStyle;rounded=0;orthogonalLoop=1;jettySize=auto;html=1;exitX=1;exitY=0.5;exitDx=0;exitDy=0;entryX=0;entryY=0.5;entryDx=0;entryDy=0;" edge="1" parent="1" source="RQ_CZgVm_nvkwywkjvJy-81" target="RQ_CZgVm_nvkwywkjvJy-101">
          <mxGeometry relative="1" as="geometry" />
        </mxCell>
        <mxCell id="RQ_CZgVm_nvkwywkjvJy-104" style="edgeStyle=orthogonalEdgeStyle;rounded=0;orthogonalLoop=1;jettySize=auto;html=1;exitX=1;exitY=0.5;exitDx=0;exitDy=0;entryX=0;entryY=0.25;entryDx=0;entryDy=0;" edge="1" parent="1" source="RQ_CZgVm_nvkwywkjvJy-81" target="RQ_CZgVm_nvkwywkjvJy-102">
          <mxGeometry relative="1" as="geometry" />
        </mxCell>
        <mxCell id="RQ_CZgVm_nvkwywkjvJy-107" value="或" style="edgeLabel;html=1;align=center;verticalAlign=middle;resizable=0;points=[];" vertex="1" connectable="0" parent="RQ_CZgVm_nvkwywkjvJy-104">
          <mxGeometry x="-0.7323" y="2" relative="1" as="geometry">
            <mxPoint as="offset" />
          </mxGeometry>
        </mxCell>
        <mxCell id="RQ_CZgVm_nvkwywkjvJy-81" value="/preference/products/${customer_id}" style="text;html=1;align=center;verticalAlign=middle;whiteSpace=wrap;rounded=0;fontFamily=Helvetica;fontSize=12;fontColor=#000000;autosize=1;" vertex="1" parent="1">
          <mxGeometry x="-350" y="2290" width="220" height="30" as="geometry" />
        </mxCell>
        <mxCell id="RQ_CZgVm_nvkwywkjvJy-87" value="redis" style="rounded=1;whiteSpace=wrap;html=1;fillColor=#f8cecc;strokeColor=#b85450;" vertex="1" parent="1">
          <mxGeometry x="-120" y="2055" width="120" height="30" as="geometry" />
        </mxCell>
        <mxCell id="RQ_CZgVm_nvkwywkjvJy-88" value="mysql" style="rounded=1;whiteSpace=wrap;html=1;fillColor=#f8cecc;strokeColor=#b85450;" vertex="1" parent="1">
          <mxGeometry x="-120" y="2110" width="120" height="25" as="geometry" />
        </mxCell>
        <mxCell id="RQ_CZgVm_nvkwywkjvJy-91" value="&lt;span style=&quot;font-size: 20px;&quot;&gt;1:1&lt;/span&gt;" style="edgeLabel;html=1;align=center;verticalAlign=middle;resizable=0;points=[];" vertex="1" connectable="0" parent="1">
          <mxGeometry x="-180.0008388434577" y="2639.999889925964" as="geometry">
            <mxPoint x="32" y="-588" as="offset" />
          </mxGeometry>
        </mxCell>
        <mxCell id="RQ_CZgVm_nvkwywkjvJy-92" value="&lt;span style=&quot;font-size: 20px;&quot;&gt;1:1&lt;/span&gt;" style="edgeLabel;html=1;align=center;verticalAlign=middle;resizable=0;points=[];" vertex="1" connectable="0" parent="1">
          <mxGeometry x="-180.0008388434577" y="2709.999889925964" as="geometry">
            <mxPoint x="32" y="-588" as="offset" />
          </mxGeometry>
        </mxCell>
        <mxCell id="RQ_CZgVm_nvkwywkjvJy-94" value="mysql" style="rounded=1;whiteSpace=wrap;html=1;fillColor=#f8cecc;strokeColor=#b85450;" vertex="1" parent="1">
          <mxGeometry x="-120" y="2165" width="120" height="25" as="geometry" />
        </mxCell>
        <mxCell id="RQ_CZgVm_nvkwywkjvJy-97" value="&lt;span style=&quot;font-size: 20px;&quot;&gt;1:1&lt;/span&gt;" style="edgeLabel;html=1;align=center;verticalAlign=middle;resizable=0;points=[];" vertex="1" connectable="0" parent="1">
          <mxGeometry x="-115.0008388434577" y="2902.999889925964" as="geometry">
            <mxPoint x="32" y="-588" as="offset" />
          </mxGeometry>
        </mxCell>
        <mxCell id="RQ_CZgVm_nvkwywkjvJy-98" value="mysql" style="rounded=1;whiteSpace=wrap;html=1;fillColor=#f8cecc;strokeColor=#b85450;" vertex="1" parent="1">
          <mxGeometry x="10" y="2232.5" width="120" height="25" as="geometry" />
        </mxCell>
        <mxCell id="RQ_CZgVm_nvkwywkjvJy-100" value="&lt;span style=&quot;font-size: 20px;&quot;&gt;1:2&lt;/span&gt;" style="edgeLabel;html=1;align=center;verticalAlign=middle;resizable=0;points=[];" vertex="1" connectable="0" parent="1">
          <mxGeometry x="-70.0008388434577" y="2782.999889925964" as="geometry">
            <mxPoint x="32" y="-588" as="offset" />
          </mxGeometry>
        </mxCell>
        <mxCell id="RQ_CZgVm_nvkwywkjvJy-101" value="redis" style="rounded=1;whiteSpace=wrap;html=1;fillColor=#f8cecc;strokeColor=#b85450;" vertex="1" parent="1">
          <mxGeometry x="-50" y="2275" width="120" height="30" as="geometry" />
        </mxCell>
        <mxCell id="RQ_CZgVm_nvkwywkjvJy-102" value="mysql" style="rounded=1;whiteSpace=wrap;html=1;fillColor=#f8cecc;strokeColor=#b85450;" vertex="1" parent="1">
          <mxGeometry x="-50" y="2325" width="120" height="25" as="geometry" />
        </mxCell>
        <mxCell id="RQ_CZgVm_nvkwywkjvJy-105" value="&lt;span style=&quot;font-size: 20px;&quot;&gt;1:1&lt;/span&gt;" style="edgeLabel;html=1;align=center;verticalAlign=middle;resizable=0;points=[];" vertex="1" connectable="0" parent="1">
          <mxGeometry x="-120.0008388434577" y="2832.999889925964" as="geometry">
            <mxPoint x="32" y="-588" as="offset" />
          </mxGeometry>
        </mxCell>
        <mxCell id="RQ_CZgVm_nvkwywkjvJy-106" value="&lt;span style=&quot;font-size: 20px;&quot;&gt;1:1&lt;/span&gt;" style="edgeLabel;html=1;align=center;verticalAlign=middle;resizable=0;points=[];" vertex="1" connectable="0" parent="1">
          <mxGeometry x="-170.0008388434577" y="2732.999889925964" as="geometry">
            <mxPoint x="32" y="-588" as="offset" />
          </mxGeometry>
        </mxCell>
        <mxCell id="RQ_CZgVm_nvkwywkjvJy-109" value="&lt;span style=&quot;font-size: 20px;&quot;&gt;1:2&lt;/span&gt;" style="edgeLabel;html=1;align=center;verticalAlign=middle;resizable=0;points=[];" vertex="1" connectable="0" parent="1">
          <mxGeometry x="-610.0008388434577" y="2922.999889925964" as="geometry">
            <mxPoint x="32" y="-588" as="offset" />
          </mxGeometry>
        </mxCell>
        <mxCell id="RQ_CZgVm_nvkwywkjvJy-116" style="edgeStyle=orthogonalEdgeStyle;rounded=0;orthogonalLoop=1;jettySize=auto;html=1;exitX=1;exitY=0.5;exitDx=0;exitDy=0;entryX=0;entryY=0.5;entryDx=0;entryDy=0;curved=1;" edge="1" parent="1" source="RQ_CZgVm_nvkwywkjvJy-110" target="RQ_CZgVm_nvkwywkjvJy-114">
          <mxGeometry relative="1" as="geometry" />
        </mxCell>
        <mxCell id="RQ_CZgVm_nvkwywkjvJy-110" value="/api/v2/customers/user/batchQueryUsers" style="text;html=1;align=center;verticalAlign=middle;whiteSpace=wrap;rounded=0;fontFamily=Helvetica;fontSize=12;fontColor=#000000;autosize=1;" vertex="1" parent="1">
          <mxGeometry x="-335" y="2370" width="240" height="30" as="geometry" />
        </mxCell>
        <mxCell id="RQ_CZgVm_nvkwywkjvJy-130" style="edgeStyle=orthogonalEdgeStyle;rounded=0;orthogonalLoop=1;jettySize=auto;html=1;exitX=1;exitY=0.25;exitDx=0;exitDy=0;entryX=0;entryY=0.5;entryDx=0;entryDy=0;" edge="1" parent="1" source="RQ_CZgVm_nvkwywkjvJy-111" target="RQ_CZgVm_nvkwywkjvJy-128">
          <mxGeometry relative="1" as="geometry" />
        </mxCell>
        <mxCell id="RQ_CZgVm_nvkwywkjvJy-131" style="edgeStyle=orthogonalEdgeStyle;rounded=0;orthogonalLoop=1;jettySize=auto;html=1;exitX=1;exitY=0.25;exitDx=0;exitDy=0;entryX=0;entryY=0.5;entryDx=0;entryDy=0;" edge="1" parent="1" source="RQ_CZgVm_nvkwywkjvJy-111" target="RQ_CZgVm_nvkwywkjvJy-129">
          <mxGeometry relative="1" as="geometry" />
        </mxCell>
        <mxCell id="RQ_CZgVm_nvkwywkjvJy-111" value="/api/v2/customers/user/queryUsersAvatorAndNickname" style="text;html=1;align=center;verticalAlign=middle;whiteSpace=wrap;rounded=0;fontFamily=Helvetica;fontSize=12;fontColor=#000000;autosize=1;" vertex="1" parent="1">
          <mxGeometry x="-365" y="2510" width="320" height="30" as="geometry" />
        </mxCell>
        <mxCell id="RQ_CZgVm_nvkwywkjvJy-119" style="edgeStyle=entityRelationEdgeStyle;rounded=0;orthogonalLoop=1;jettySize=auto;html=1;startArrow=none;endArrow=none;segment=10;curved=1;sourcePerimeterSpacing=0;targetPerimeterSpacing=0;exitX=1;exitY=0.5;exitDx=0;exitDy=0;entryX=0;entryY=0.5;entryDx=0;entryDy=0;" edge="1" parent="1" source="RQ_CZgVm_nvkwywkjvJy-114" target="RQ_CZgVm_nvkwywkjvJy-118">
          <mxGeometry relative="1" as="geometry" />
        </mxCell>
        <mxCell id="RQ_CZgVm_nvkwywkjvJy-114" value="CC" style="whiteSpace=wrap;html=1;rounded=1;arcSize=50;align=center;verticalAlign=middle;strokeWidth=1;autosize=0;spacing=4;treeFolding=1;treeMoving=1;newEdgeStyle={&quot;edgeStyle&quot;:&quot;entityRelationEdgeStyle&quot;,&quot;startArrow&quot;:&quot;none&quot;,&quot;endArrow&quot;:&quot;none&quot;,&quot;segment&quot;:10,&quot;curved&quot;:1,&quot;sourcePerimeterSpacing&quot;:0,&quot;targetPerimeterSpacing&quot;:0};strokeColor=#3700CC;fontFamily=Helvetica;fontSize=12;fontColor=#000000;fillColor=#6a00ff;" vertex="1" parent="1">
          <mxGeometry x="10" y="2370" width="120" height="60" as="geometry" />
        </mxCell>
        <mxCell id="RQ_CZgVm_nvkwywkjvJy-117" value="&lt;span style=&quot;color: rgb(0, 0, 0); font-family: Helvetica; font-size: 20px; font-style: normal; font-variant-ligatures: normal; font-variant-caps: normal; font-weight: 400; letter-spacing: normal; orphans: 2; text-align: center; text-indent: 0px; text-transform: none; widows: 2; word-spacing: 0px; -webkit-text-stroke-width: 0px; white-space: nowrap; background-color: rgb(255, 255, 255); text-decoration-thickness: initial; text-decoration-style: initial; text-decoration-color: initial; display: inline !important; float: none;&quot;&gt;1:1&lt;/span&gt;" style="text;whiteSpace=wrap;html=1;" vertex="1" parent="1">
          <mxGeometry x="-75" y="2395" width="60" height="50" as="geometry" />
        </mxCell>
        <mxCell id="RQ_CZgVm_nvkwywkjvJy-122" style="edgeStyle=orthogonalEdgeStyle;rounded=0;orthogonalLoop=1;jettySize=auto;html=1;exitX=1;exitY=0.5;exitDx=0;exitDy=0;entryX=0;entryY=0.5;entryDx=0;entryDy=0;" edge="1" parent="1" target="RQ_CZgVm_nvkwywkjvJy-120">
          <mxGeometry relative="1" as="geometry">
            <mxPoint x="-200" y="2848" as="sourcePoint" />
          </mxGeometry>
        </mxCell>
        <mxCell id="RQ_CZgVm_nvkwywkjvJy-123" style="edgeStyle=orthogonalEdgeStyle;rounded=0;orthogonalLoop=1;jettySize=auto;html=1;exitX=1;exitY=0.5;exitDx=0;exitDy=0;entryX=0;entryY=0.5;entryDx=0;entryDy=0;" edge="1" parent="1" target="RQ_CZgVm_nvkwywkjvJy-121">
          <mxGeometry relative="1" as="geometry">
            <mxPoint x="-200" y="2848" as="sourcePoint" />
          </mxGeometry>
        </mxCell>
        <mxCell id="RQ_CZgVm_nvkwywkjvJy-127" value="或" style="edgeLabel;html=1;align=center;verticalAlign=middle;resizable=0;points=[];" vertex="1" connectable="0" parent="RQ_CZgVm_nvkwywkjvJy-123">
          <mxGeometry x="-0.7843" y="-1" relative="1" as="geometry">
            <mxPoint as="offset" />
          </mxGeometry>
        </mxCell>
        <mxCell id="RQ_CZgVm_nvkwywkjvJy-118" value="/customer/batchQueryCustomers" style="text;html=1;align=center;verticalAlign=middle;whiteSpace=wrap;rounded=0;fontFamily=Helvetica;fontSize=12;fontColor=#000000;autosize=1;" vertex="1" parent="1">
          <mxGeometry x="210" y="2385" width="200" height="30" as="geometry" />
        </mxCell>
        <mxCell id="RQ_CZgVm_nvkwywkjvJy-120" value="redis" style="rounded=1;whiteSpace=wrap;html=1;fillColor=#f8cecc;strokeColor=#b85450;" vertex="1" parent="1">
          <mxGeometry x="-150" y="2803" width="120" height="30" as="geometry" />
        </mxCell>
        <mxCell id="RQ_CZgVm_nvkwywkjvJy-121" value="mysql" style="rounded=1;whiteSpace=wrap;html=1;fillColor=#f8cecc;strokeColor=#b85450;" vertex="1" parent="1">
          <mxGeometry x="-150" y="2858" width="120" height="30" as="geometry" />
        </mxCell>
        <mxCell id="RQ_CZgVm_nvkwywkjvJy-124" value="&lt;span style=&quot;color: rgb(0, 0, 0); font-family: Helvetica; font-size: 20px; font-style: normal; font-variant-ligatures: normal; font-variant-caps: normal; font-weight: 400; letter-spacing: normal; orphans: 2; text-align: center; text-indent: 0px; text-transform: none; widows: 2; word-spacing: 0px; -webkit-text-stroke-width: 0px; white-space: nowrap; background-color: rgb(255, 255, 255); text-decoration-thickness: initial; text-decoration-style: initial; text-decoration-color: initial; display: inline !important; float: none;&quot;&gt;1:1&lt;/span&gt;" style="text;whiteSpace=wrap;html=1;" vertex="1" parent="1">
          <mxGeometry x="-210" y="2773" width="60" height="50" as="geometry" />
        </mxCell>
        <mxCell id="RQ_CZgVm_nvkwywkjvJy-125" value="&lt;span style=&quot;color: rgb(0, 0, 0); font-family: Helvetica; font-size: 20px; font-style: normal; font-variant-ligatures: normal; font-variant-caps: normal; font-weight: 400; letter-spacing: normal; orphans: 2; text-align: center; text-indent: 0px; text-transform: none; widows: 2; word-spacing: 0px; -webkit-text-stroke-width: 0px; white-space: nowrap; background-color: rgb(255, 255, 255); text-decoration-thickness: initial; text-decoration-style: initial; text-decoration-color: initial; display: inline !important; float: none;&quot;&gt;1:1&lt;/span&gt;" style="text;whiteSpace=wrap;html=1;" vertex="1" parent="1">
          <mxGeometry x="400" y="2430" width="60" height="50" as="geometry" />
        </mxCell>
        <mxCell id="RQ_CZgVm_nvkwywkjvJy-136" style="edgeStyle=entityRelationEdgeStyle;rounded=0;orthogonalLoop=1;jettySize=auto;html=1;startArrow=none;endArrow=none;segment=10;curved=1;sourcePerimeterSpacing=0;targetPerimeterSpacing=0;exitX=1;exitY=0.5;exitDx=0;exitDy=0;entryX=0;entryY=0.5;entryDx=0;entryDy=0;" edge="1" parent="1" source="RQ_CZgVm_nvkwywkjvJy-128" target="RQ_CZgVm_nvkwywkjvJy-134">
          <mxGeometry relative="1" as="geometry" />
        </mxCell>
        <mxCell id="RQ_CZgVm_nvkwywkjvJy-128" value="CC" style="whiteSpace=wrap;html=1;rounded=1;arcSize=50;align=center;verticalAlign=middle;strokeWidth=1;autosize=0;spacing=4;treeFolding=1;treeMoving=1;newEdgeStyle={&quot;edgeStyle&quot;:&quot;entityRelationEdgeStyle&quot;,&quot;startArrow&quot;:&quot;none&quot;,&quot;endArrow&quot;:&quot;none&quot;,&quot;segment&quot;:10,&quot;curved&quot;:1,&quot;sourcePerimeterSpacing&quot;:0,&quot;targetPerimeterSpacing&quot;:0};strokeColor=#3700CC;fontFamily=Helvetica;fontSize=12;fontColor=#000000;fillColor=#6a00ff;" vertex="1" parent="1">
          <mxGeometry x="10" y="2450" width="120" height="60" as="geometry" />
        </mxCell>
        <mxCell id="RQ_CZgVm_nvkwywkjvJy-137" style="edgeStyle=entityRelationEdgeStyle;rounded=0;orthogonalLoop=1;jettySize=auto;html=1;startArrow=none;endArrow=none;segment=10;curved=1;sourcePerimeterSpacing=0;targetPerimeterSpacing=0;exitX=1;exitY=0.5;exitDx=0;exitDy=0;entryX=0;entryY=0.5;entryDx=0;entryDy=0;" edge="1" parent="1" source="RQ_CZgVm_nvkwywkjvJy-129" target="RQ_CZgVm_nvkwywkjvJy-135">
          <mxGeometry relative="1" as="geometry" />
        </mxCell>
        <mxCell id="RQ_CZgVm_nvkwywkjvJy-129" value="AIM" style="whiteSpace=wrap;html=1;rounded=1;arcSize=50;align=center;verticalAlign=middle;strokeWidth=1;autosize=0;spacing=4;treeFolding=1;treeMoving=1;newEdgeStyle={&quot;edgeStyle&quot;:&quot;entityRelationEdgeStyle&quot;,&quot;startArrow&quot;:&quot;none&quot;,&quot;endArrow&quot;:&quot;none&quot;,&quot;segment&quot;:10,&quot;curved&quot;:1,&quot;sourcePerimeterSpacing&quot;:0,&quot;targetPerimeterSpacing&quot;:0};strokeColor=#006EAF;fontFamily=Helvetica;fontSize=12;fontColor=#ffffff;fillColor=#1ba1e2;" vertex="1" parent="1">
          <mxGeometry x="10" y="2550" width="120" height="60" as="geometry" />
        </mxCell>
        <mxCell id="RQ_CZgVm_nvkwywkjvJy-132" value="&lt;span style=&quot;color: rgb(0, 0, 0); font-family: Helvetica; font-size: 20px; font-style: normal; font-variant-ligatures: normal; font-variant-caps: normal; font-weight: 400; letter-spacing: normal; orphans: 2; text-align: center; text-indent: 0px; text-transform: none; widows: 2; word-spacing: 0px; -webkit-text-stroke-width: 0px; white-space: nowrap; background-color: rgb(255, 255, 255); text-decoration-thickness: initial; text-decoration-style: initial; text-decoration-color: initial; display: inline !important; float: none;&quot;&gt;1:1&lt;/span&gt;" style="text;whiteSpace=wrap;html=1;" vertex="1" parent="1">
          <mxGeometry x="-50" y="2450" width="60" height="50" as="geometry" />
        </mxCell>
        <mxCell id="RQ_CZgVm_nvkwywkjvJy-133" value="&lt;span style=&quot;color: rgb(0, 0, 0); font-family: Helvetica; font-size: 20px; font-style: normal; font-variant-ligatures: normal; font-variant-caps: normal; font-weight: 400; letter-spacing: normal; orphans: 2; text-align: center; text-indent: 0px; text-transform: none; widows: 2; word-spacing: 0px; -webkit-text-stroke-width: 0px; white-space: nowrap; background-color: rgb(255, 255, 255); text-decoration-thickness: initial; text-decoration-style: initial; text-decoration-color: initial; display: inline !important; float: none;&quot;&gt;1:1&lt;/span&gt;" style="text;whiteSpace=wrap;html=1;" vertex="1" parent="1">
          <mxGeometry x="-60" y="2570" width="60" height="50" as="geometry" />
        </mxCell>
        <mxCell id="RQ_CZgVm_nvkwywkjvJy-134" value="/member/memberInfo/getMemberDetail" style="text;html=1;align=center;verticalAlign=middle;whiteSpace=wrap;rounded=0;fontFamily=Helvetica;fontSize=12;fontColor=#000000;autosize=1;" vertex="1" parent="1">
          <mxGeometry x="199" y="2465" width="230" height="30" as="geometry" />
        </mxCell>
        <mxCell id="RQ_CZgVm_nvkwywkjvJy-146" style="edgeStyle=orthogonalEdgeStyle;rounded=0;orthogonalLoop=1;jettySize=auto;html=1;exitX=1;exitY=0.5;exitDx=0;exitDy=0;entryX=0;entryY=0.5;entryDx=0;entryDy=0;" edge="1" parent="1" source="RQ_CZgVm_nvkwywkjvJy-135" target="RQ_CZgVm_nvkwywkjvJy-145">
          <mxGeometry relative="1" as="geometry" />
        </mxCell>
        <mxCell id="RQ_CZgVm_nvkwywkjvJy-135" value="/AIM/api/v1/query/getUserByCustomerId" style="text;html=1;align=center;verticalAlign=middle;whiteSpace=wrap;rounded=0;fontFamily=Helvetica;fontSize=12;fontColor=#000000;autosize=1;" vertex="1" parent="1">
          <mxGeometry x="194" y="2565" width="240" height="30" as="geometry" />
        </mxCell>
        <mxCell id="RQ_CZgVm_nvkwywkjvJy-138" style="edgeStyle=orthogonalEdgeStyle;rounded=0;orthogonalLoop=1;jettySize=auto;html=1;exitX=1;exitY=0.5;exitDx=0;exitDy=0;entryX=0;entryY=0.5;entryDx=0;entryDy=0;" edge="1" parent="1" target="RQ_CZgVm_nvkwywkjvJy-141">
          <mxGeometry relative="1" as="geometry">
            <mxPoint x="439" y="2497.5" as="sourcePoint" />
          </mxGeometry>
        </mxCell>
        <mxCell id="RQ_CZgVm_nvkwywkjvJy-139" style="edgeStyle=orthogonalEdgeStyle;rounded=0;orthogonalLoop=1;jettySize=auto;html=1;exitX=1;exitY=0.5;exitDx=0;exitDy=0;entryX=0;entryY=0.5;entryDx=0;entryDy=0;" edge="1" parent="1" target="RQ_CZgVm_nvkwywkjvJy-142">
          <mxGeometry relative="1" as="geometry">
            <mxPoint x="439" y="2497.5" as="sourcePoint" />
          </mxGeometry>
        </mxCell>
        <mxCell id="RQ_CZgVm_nvkwywkjvJy-140" value="或" style="edgeLabel;html=1;align=center;verticalAlign=middle;resizable=0;points=[];" vertex="1" connectable="0" parent="RQ_CZgVm_nvkwywkjvJy-139">
          <mxGeometry x="-0.7843" y="-1" relative="1" as="geometry">
            <mxPoint as="offset" />
          </mxGeometry>
        </mxCell>
        <mxCell id="RQ_CZgVm_nvkwywkjvJy-141" value="redis" style="rounded=1;whiteSpace=wrap;html=1;fillColor=#f8cecc;strokeColor=#b85450;" vertex="1" parent="1">
          <mxGeometry x="489" y="2452.5" width="120" height="30" as="geometry" />
        </mxCell>
        <mxCell id="RQ_CZgVm_nvkwywkjvJy-142" value="mysql" style="rounded=1;whiteSpace=wrap;html=1;fillColor=#f8cecc;strokeColor=#b85450;" vertex="1" parent="1">
          <mxGeometry x="489" y="2507.5" width="120" height="30" as="geometry" />
        </mxCell>
        <mxCell id="RQ_CZgVm_nvkwywkjvJy-143" value="&lt;span style=&quot;color: rgb(0, 0, 0); font-family: Helvetica; font-size: 20px; font-style: normal; font-variant-ligatures: normal; font-variant-caps: normal; font-weight: 400; letter-spacing: normal; orphans: 2; text-align: center; text-indent: 0px; text-transform: none; widows: 2; word-spacing: 0px; -webkit-text-stroke-width: 0px; white-space: nowrap; background-color: rgb(255, 255, 255); text-decoration-thickness: initial; text-decoration-style: initial; text-decoration-color: initial; display: inline !important; float: none;&quot;&gt;1:1&lt;/span&gt;" style="text;whiteSpace=wrap;html=1;" vertex="1" parent="1">
          <mxGeometry x="429" y="2452.5" width="60" height="50" as="geometry" />
        </mxCell>
        <mxCell id="RQ_CZgVm_nvkwywkjvJy-144" value="&lt;span style=&quot;color: rgb(0, 0, 0); font-family: Helvetica; font-size: 20px; font-style: normal; font-variant-ligatures: normal; font-variant-caps: normal; font-weight: 400; letter-spacing: normal; orphans: 2; text-align: center; text-indent: 0px; text-transform: none; widows: 2; word-spacing: 0px; -webkit-text-stroke-width: 0px; white-space: nowrap; background-color: rgb(255, 255, 255); text-decoration-thickness: initial; text-decoration-style: initial; text-decoration-color: initial; display: inline !important; float: none;&quot;&gt;1:1&lt;/span&gt;" style="text;whiteSpace=wrap;html=1;" vertex="1" parent="1">
          <mxGeometry x="434" y="2510" width="60" height="50" as="geometry" />
        </mxCell>
        <mxCell id="RQ_CZgVm_nvkwywkjvJy-145" value="redis" style="rounded=1;whiteSpace=wrap;html=1;fillColor=#f8cecc;strokeColor=#b85450;" vertex="1" parent="1">
          <mxGeometry x="489" y="2565" width="120" height="30" as="geometry" />
        </mxCell>
        <mxCell id="RQ_CZgVm_nvkwywkjvJy-147" value="&lt;span style=&quot;color: rgb(0, 0, 0); font-family: Helvetica; font-size: 20px; font-style: normal; font-variant-ligatures: normal; font-variant-caps: normal; font-weight: 400; letter-spacing: normal; orphans: 2; text-align: center; text-indent: 0px; text-transform: none; widows: 2; word-spacing: 0px; -webkit-text-stroke-width: 0px; white-space: nowrap; background-color: rgb(255, 255, 255); text-decoration-thickness: initial; text-decoration-style: initial; text-decoration-color: initial; display: inline !important; float: none;&quot;&gt;1:1&lt;/span&gt;" style="text;whiteSpace=wrap;html=1;" vertex="1" parent="1">
          <mxGeometry x="444" y="2545" width="60" height="50" as="geometry" />
        </mxCell>
        <mxCell id="RQ_CZgVm_nvkwywkjvJy-148" value="&lt;font color=&quot;#000000&quot;&gt;请求默认支付方式&lt;/font&gt;&lt;div&gt;&lt;font color=&quot;#000000&quot;&gt;/common-api/v1/payment/settings&lt;br&gt;&lt;/font&gt;&lt;/div&gt;" style="whiteSpace=wrap;html=1;rounded=1;arcSize=50;align=center;verticalAlign=middle;strokeWidth=1;autosize=0;spacing=4;treeFolding=1;treeMoving=1;newEdgeStyle={&quot;edgeStyle&quot;:&quot;entityRelationEdgeStyle&quot;,&quot;startArrow&quot;:&quot;none&quot;,&quot;endArrow&quot;:&quot;none&quot;,&quot;segment&quot;:10,&quot;curved&quot;:1,&quot;sourcePerimeterSpacing&quot;:0,&quot;targetPerimeterSpacing&quot;:0};strokeColor=#2D7600;fontFamily=Helvetica;fontSize=12;fontColor=#ffffff;fillColor=#008a00;resizable=1;" vertex="1" parent="1">
          <mxGeometry x="-742.5" y="2813" width="120" height="60" as="geometry" />
        </mxCell>
        <mxCell id="RQ_CZgVm_nvkwywkjvJy-149" value="" style="edgeStyle=entityRelationEdgeStyle;rounded=0;orthogonalLoop=1;jettySize=auto;html=1;startArrow=none;endArrow=none;segment=10;curved=1;sourcePerimeterSpacing=0;targetPerimeterSpacing=0;exitX=1;exitY=0.5;exitDx=0;exitDy=0;" edge="1" parent="1" source="RQ_CZgVm_nvkwywkjvJy-152" target="RQ_CZgVm_nvkwywkjvJy-150">
          <mxGeometry relative="1" as="geometry">
            <mxPoint x="-450.5" y="2843" as="sourcePoint" />
          </mxGeometry>
        </mxCell>
        <mxCell id="RQ_CZgVm_nvkwywkjvJy-150" value="/preference/settings/${customerId}" style="text;html=1;align=center;verticalAlign=middle;whiteSpace=wrap;rounded=0;fontFamily=Helvetica;fontSize=12;fontColor=#000000;autosize=1;" vertex="1" parent="1">
          <mxGeometry x="-410.5" y="2828" width="210" height="30" as="geometry" />
        </mxCell>
        <mxCell id="RQ_CZgVm_nvkwywkjvJy-151" value="&lt;font style=&quot;font-size: 25px;&quot;&gt;1:1&lt;/font&gt;" style="edgeStyle=orthogonalEdgeStyle;rounded=0;orthogonalLoop=1;jettySize=auto;html=1;entryX=0;entryY=0.5;entryDx=0;entryDy=0;exitX=1;exitY=0.5;exitDx=0;exitDy=0;" edge="1" parent="1" source="RQ_CZgVm_nvkwywkjvJy-148" target="RQ_CZgVm_nvkwywkjvJy-152">
          <mxGeometry x="-0.1538" y="20" relative="1" as="geometry">
            <mxPoint x="-640.5" y="2693" as="sourcePoint" />
            <mxPoint x="-570.5" y="2843" as="targetPoint" />
            <mxPoint as="offset" />
          </mxGeometry>
        </mxCell>
        <mxCell id="RQ_CZgVm_nvkwywkjvJy-152" value="CC" style="whiteSpace=wrap;html=1;rounded=1;arcSize=50;align=center;verticalAlign=middle;strokeWidth=1;autosize=0;spacing=4;treeFolding=1;treeMoving=1;newEdgeStyle={&quot;edgeStyle&quot;:&quot;entityRelationEdgeStyle&quot;,&quot;startArrow&quot;:&quot;none&quot;,&quot;endArrow&quot;:&quot;none&quot;,&quot;segment&quot;:10,&quot;curved&quot;:1,&quot;sourcePerimeterSpacing&quot;:0,&quot;targetPerimeterSpacing&quot;:0};strokeColor=#3700CC;fontFamily=Helvetica;fontSize=12;fontColor=#ffffff;fillColor=#6a00ff;movable=1;resizable=1;rotatable=1;deletable=1;editable=1;locked=0;connectable=1;aspect=fixed;imageAspect=0;recursiveResize=0;" vertex="1" parent="1">
          <mxGeometry x="-570.5" y="2813" width="120" height="60" as="geometry" />
        </mxCell>
        <mxCell id="RQ_CZgVm_nvkwywkjvJy-153" value="&lt;span style=&quot;color: rgb(0, 0, 0); font-family: Helvetica; font-size: 20px; font-style: normal; font-variant-ligatures: normal; font-variant-caps: normal; font-weight: 400; letter-spacing: normal; orphans: 2; text-align: center; text-indent: 0px; text-transform: none; widows: 2; word-spacing: 0px; -webkit-text-stroke-width: 0px; white-space: nowrap; background-color: rgb(255, 255, 255); text-decoration-thickness: initial; text-decoration-style: initial; text-decoration-color: initial; display: inline !important; float: none;&quot;&gt;1:1&lt;/span&gt;" style="text;whiteSpace=wrap;html=1;" vertex="1" parent="1">
          <mxGeometry x="-220" y="2871" width="60" height="50" as="geometry" />
        </mxCell>
      </root>
    </mxGraphModel>
  </diagram>
</mxfile>
